<?xml version="1.0" encoding="UTF-8" standalone="no"?>
<svg
   xmlns:dc="http://purl.org/dc/elements/1.1/"
   xmlns:cc="http://creativecommons.org/ns#"
   xmlns:rdf="http://www.w3.org/1999/02/22-rdf-syntax-ns#"
   xmlns:svg="http://www.w3.org/2000/svg"
   xmlns="http://www.w3.org/2000/svg"
   viewBox="0 0 182.22133 213.33333"
   height="213.33333"
   width="182.22133"
   xml:space="preserve"
   id="svg2"
   version="1.1"><metadata
     id="metadata8"><rdf:RDF><cc:Work
         rdf:about=""><dc:format>image/svg+xml</dc:format><dc:type
           rdf:resource="http://purl.org/dc/dcmitype/StillImage" /></cc:Work></rdf:RDF></metadata><defs
     id="defs6"><clipPath
       id="clipPath20"
       clipPathUnits="userSpaceOnUse"><path
         id="path18"
         d="M 0,160 H 136.666 V 0 H 0 Z" /></clipPath></defs><g
     transform="matrix(1.3333333,0,0,-1.3333333,0,213.33333)"
     id="g10"><path
       id="path12"
       style="fill:#231f20;fill-opacity:1;fill-rule:nonzero;stroke:none"
       d="M 0,0 H 136.666 V 160 H 0 Z" /><g
       id="g14"><g
         clip-path="url(#clipPath20)"
         id="g16"><g
           transform="translate(16.2031,14.9961)"
           id="g22"><path
             id="path24"
             style="fill:#ffffff;fill-opacity:1;fill-rule:nonzero;stroke:none"
             d="M 0,0 V 3.637 C 0.447,3.252 0.887,2.965 1.316,2.773 1.746,2.584 2.182,2.488 2.621,2.488 c 0.6,0 1.074,0.157 1.42,0.469 0.344,0.311 0.518,0.734 0.518,1.272 0,0.662 -0.465,1.382 -1.397,2.158 C 2.902,6.604 2.709,6.771 2.58,6.891 1.486,7.854 0.736,8.715 0.328,9.48 c -0.408,0.768 -0.611,1.635 -0.611,2.604 0,1.514 0.433,2.738 1.301,3.672 0.865,0.932 2,1.4 3.398,1.4 0.498,0 0.986,-0.072 1.471,-0.211 0.486,-0.142 0.996,-0.361 1.533,-0.656 v -3.103 c -0.625,0.294 -1.111,0.498 -1.455,0.609 -0.346,0.111 -0.652,0.168 -0.922,0.168 -0.512,0 -0.93,-0.158 -1.254,-0.475 -0.326,-0.316 -0.486,-0.73 -0.486,-1.242 0,-0.447 0.119,-0.865 0.361,-1.254 C 3.908,10.604 4.475,10.031 5.365,9.27 6.559,8.262 7.322,7.424 7.664,6.754 8.004,6.086 8.174,5.279 8.174,4.334 8.174,2.74 7.719,1.48 6.805,0.557 5.891,-0.367 4.645,-0.83 3.07,-0.83 2.469,-0.83 1.914,-0.762 1.408,-0.627 0.898,-0.488 0.43,-0.281 0,0" /></g><g
           transform="translate(32.9824,24.291)"
           id="g26"><path
             id="path28"
             style="fill:#ffffff;fill-opacity:1;fill-rule:nonzero;stroke:none"
             d="M 0,0 C 0.199,1.35 0.391,2.684 0.57,3.998 0.715,2.508 0.885,1.09 1.082,-0.254 1.275,-1.598 1.496,-2.883 1.74,-4.109 H -0.627 C -0.408,-2.723 -0.199,-1.354 0,0 m -1.824,-9.908 0.551,3.07 h 3.574 l 0.597,-3.07 H 6.451 L 2.496,7.645 H -1.225 L -5.371,-9.908 Z" /></g><g
           transform="translate(44.4785,14.3828)"
           id="g30"><path
             id="path32"
             style="fill:#ffffff;fill-opacity:1;fill-rule:nonzero;stroke:none"
             d="m 0,0 v 14.297 h -2.705 v 3.256 H 6.287 V 14.297 H 3.584 L 3.584,0 Z" /></g><g
           transform="translate(55.2715,14.3828)"
           id="g34"><path
             id="path36"
             style="fill:#ffffff;fill-opacity:1;fill-rule:nonzero;stroke:none"
             d="M 0,0 V 17.553 H 7.482 V 14.297 H 3.428 V 10.762 H 7.105 V 7.535 H 3.428 V 3.41 h 4.054 l 0,-3.41 z" /></g><g
           transform="translate(67.877,14.3828)"
           id="g38"><path
             id="path40"
             style="fill:#ffffff;fill-opacity:1;fill-rule:nonzero;stroke:none"
             d="M 0,0 V 17.553 H 3.521 V 3.41 H 7.545 V 0 Z" /></g><g
           transform="translate(79.6113,14.3828)"
           id="g42"><path
             id="path44"
             style="fill:#ffffff;fill-opacity:1;fill-rule:nonzero;stroke:none"
             d="M 0,0 V 17.553 H 3.521 V 3.41 H 7.547 V 0 Z" /></g><path
           id="path46"
           style="fill:#ffffff;fill-opacity:1;fill-rule:nonzero;stroke:none"
           d="m 91.438,31.936 h 3.615 V 14.383 h -3.615 z" /><g
           transform="translate(102.4668,14.3828)"
           id="g48"><path
             id="path50"
             style="fill:#ffffff;fill-opacity:1;fill-rule:nonzero;stroke:none"
             d="m 0,0 v 14.297 h -2.703 v 3.256 H 6.289 V 14.297 H 3.586 L 3.586,0 Z" /></g><g
           transform="translate(113.2617,14.3828)"
           id="g52"><path
             id="path54"
             style="fill:#ffffff;fill-opacity:1;fill-rule:nonzero;stroke:none"
             d="M 0,0 V 17.553 H 7.482 V 14.297 H 3.428 V 10.762 H 7.105 V 7.535 H 3.428 V 3.41 h 4.054 l 0,-3.41 z" /></g><g
           transform="translate(117.918,139.3535)"
           id="g56"><path
             id="path58"
             style="fill:#ffffff;fill-opacity:1;fill-rule:nonzero;stroke:none"
             d="m 0,0 v -98.923 h -0.367 c -27.817,20.224 -61.951,32.281 -98.806,32.543 V 0 Z M -101.876,-101.627 H 2.702 V 2.702 h -104.578 z" /></g><g
           transform="translate(105.2949,113.9766)"
           id="g60"><path
             id="path62"
             style="fill:#ffffff;fill-opacity:1;fill-rule:nonzero;stroke:none"
             d="m 0,0 c 0,-6.51 -5.281,-11.791 -11.795,-11.791 -6.512,0 -11.793,5.281 -11.793,11.791 0,6.516 5.281,11.793 11.793,11.793 C -5.281,11.793 0,6.516 0,0" /></g></g></g></g></svg>